<svg xmlns="http://www.w3.org/2000/svg" viewBox="0 0 40 32.51"><g id="Layer_2" data-name="Layer 2"><g id="Layer_1-2" data-name="Layer 1"><path d="M40,3.85a16.51,16.51,0,0,1-4.71,1.29A8.29,8.29,0,0,0,38.9.6a16.57,16.57,0,0,1-5.22,2,8.22,8.22,0,0,0-14,7.49A23.33,23.33,0,0,1,2.78,1.5a8.22,8.22,0,0,0,2.54,11,8,8,0,0,1-3.71-1v.11a8.21,8.21,0,0,0,6.58,8A8.1,8.1,0,0,1,6,19.87a7.91,7.91,0,0,1-1.55-.15,8.22,8.22,0,0,0,7.67,5.7A16.48,16.48,0,0,1,2,28.93a15.87,15.87,0,0,1-2-.11,23.22,23.22,0,0,0,12.58,3.69C27.67,32.51,35.93,20,35.93,9.16c0-.36,0-.71,0-1.06A16.73,16.73,0,0,0,40,3.85Z"/></g></g></svg>